<svg width="40" height="40" viewBox="0 0 40 40" fill="none" xmlns="http://www.w3.org/2000/svg">
<path d="M37.7 4.75001L37.9063 5.93126C37.9286 6.04843 37.9169 6.16954 37.8726 6.28029C37.8283 6.39104 37.7532 6.48679 37.6563 6.55626C37.5651 6.61791 37.4594 6.65442 37.3496 6.6621C37.2399 6.66978 37.1301 6.64836 37.0313 6.60001L35.9688 6.04376L34.9063 6.60001C34.8185 6.64949 34.7195 6.67534 34.6188 6.67501C34.4864 6.67548 34.3572 6.6339 34.25 6.55626C34.153 6.48679 34.078 6.39104 34.0337 6.28029C33.9894 6.16954 33.9777 6.04843 34 5.93126L34.175 4.75001L33.3125 3.91251C33.2281 3.83097 33.1684 3.72734 33.1402 3.61345C33.1119 3.49957 33.1163 3.38004 33.1528 3.26853C33.1894 3.15703 33.2565 3.05805 33.3467 2.98293C33.4368 2.90781 33.5462 2.85958 33.6625 2.84376L34.8438 2.67501L35.375 1.60001C35.4262 1.49434 35.5061 1.40522 35.6056 1.34286C35.7051 1.28051 35.8201 1.24744 35.9375 1.24744C36.0549 1.24744 36.17 1.28051 36.2694 1.34286C36.3689 1.40522 36.4488 1.49434 36.5 1.60001L37.0313 2.67501L38.2125 2.84376C38.3288 2.85958 38.4382 2.90781 38.5284 2.98293C38.6185 3.05805 38.6857 3.15703 38.7222 3.26853C38.7587 3.38004 38.7631 3.49957 38.7348 3.61345C38.7066 3.72734 38.6469 3.83097 38.5625 3.91251L37.7 4.75001ZM21.875 7.81251C21.9117 7.70344 21.9778 7.60663 22.0661 7.53274C22.1543 7.45885 22.2612 7.41076 22.375 7.39376L24.2063 7.11251L25.025 5.36251C25.0747 5.25339 25.1548 5.16088 25.2556 5.096C25.3565 5.03113 25.4738 4.99664 25.5938 4.99664C25.7137 4.99664 25.831 5.03113 25.9319 5.096C26.0327 5.16088 26.1128 5.25339 26.1625 5.36251L26.9813 7.11251L28.8125 7.39376C28.9263 7.41076 29.0332 7.45885 29.1215 7.53274C29.2097 7.60663 29.2758 7.70344 29.3125 7.81251C29.3472 7.91995 29.3522 8.0348 29.3269 8.14485C29.3016 8.2549 29.2469 8.35603 29.1688 8.43751L27.825 9.81251L28.1438 11.7625C28.1577 11.8764 28.14 11.992 28.0925 12.0965C28.0451 12.2011 27.9698 12.2905 27.8749 12.3551C27.78 12.4196 27.6692 12.4568 27.5545 12.4625C27.4399 12.4683 27.3259 12.4423 27.225 12.3875L25.625 11.5188L23.9938 12.425C23.9016 12.4747 23.7985 12.5005 23.6938 12.5C23.5642 12.501 23.4375 12.4617 23.3313 12.3875C23.2332 12.3188 23.1568 12.2234 23.1114 12.1126C23.066 12.0018 23.0534 11.8803 23.075 11.7625L23.3938 9.81251L22.05 8.43751C21.9664 8.35934 21.9059 8.25971 21.875 8.1495C21.8442 8.03929 21.8442 7.92272 21.875 7.81251Z" fill="black"/>
<path d="M1.25 25.625H3.75V26.875H1.25V25.625Z" fill="black"/>
<path d="M30.625 21.25H21.5813L27.8313 25.0938C27.9503 25.162 28.0435 25.2675 28.0966 25.394C28.1497 25.5205 28.1597 25.661 28.125 25.7938C28.0872 25.9289 28.005 26.0475 27.8916 26.1302C27.7782 26.213 27.6403 26.2552 27.5 26.25H21.875V25H25.2937L19.0438 21.1562C18.9247 21.088 18.8315 20.9825 18.7784 20.856C18.7253 20.7295 18.7153 20.589 18.75 20.4562C18.7878 20.3211 18.87 20.2025 18.9834 20.1198C19.0968 20.037 19.2347 19.9948 19.375 20H30.625V21.25Z" fill="black"/>
<path d="M31.875 20H33.125V21.25H31.875V20Z" fill="black"/>
<path d="M3.74999 35H7.99374V36.25H3.74999V35Z" fill="black"/>
<path d="M10.325 5.43127C11.728 4.23898 13.3044 3.26742 15 2.55002C15.1231 2.49616 15.2603 2.48341 15.3913 2.51367C15.5222 2.54394 15.6399 2.6156 15.7269 2.71803C15.8139 2.82046 15.8655 2.9482 15.8742 3.08231C15.8829 3.21641 15.8481 3.34974 15.775 3.46252C13.7995 6.56836 12.8653 10.223 13.108 13.8959C13.3508 17.5688 14.7579 21.0687 17.125 23.8875C19.5555 26.8783 22.9365 28.947 26.7058 29.7498C30.475 30.5525 34.4055 30.0409 37.8438 28.3C37.9624 28.2393 38.0973 28.218 38.2289 28.2394C38.3604 28.2607 38.4817 28.3236 38.575 28.4188C38.6685 28.5147 38.7287 28.6382 38.7467 28.771C38.7647 28.9038 38.7396 29.0389 38.675 29.1563C37.5784 31.1569 36.1204 32.937 34.375 34.4063C31.0833 37.2275 26.8915 38.7792 22.5563 38.7813C22.0188 38.7813 21.475 38.7813 20.925 38.7125C18.4544 38.4901 16.053 37.7768 13.8615 36.6145C11.67 35.4522 9.73252 33.8643 8.1625 31.9438C4.97355 28.1241 3.41316 23.2043 3.81768 18.2449C4.22219 13.2855 6.55922 8.68367 10.325 5.43127Z" fill="black"/>
</svg>
